# xmcd
#
# Track frame offsets:
#	150
#	12870
#	27175
#	38042
#	51388
#	64529
#	76563
#	89587
#	102157
#	118089
#	129643
#	144247
#	156769
#	174572
#
# Disc length: 2491 seconds
# Revision: 0
# Processed by: cddbd v1.5.2PL0 Copyright (c) Steve Scherf et al.
# Submitted via: dBpowerAMP V12.0
#
DISCID=ac09b90e
DTITLE=Lisa Aschmann - The Birds
DYEAR=2000
DGENRE=Country
TTITLE0=Sky High
TTITLE1=What I Love About Rain
TTITLE2=Old Quebec
TTITLE3=I Am That Love
TTITLE4=Edges Of The Moon
TTITLE5=So Taken In
TTITLE6=Tu Es Mon Espirit
TTITLE7=Free Will
TTITLE8=Healing In The Hands Of Time
TTITLE9=Winter
TTITLE10=I Want To Get Back
TTITLE11=The Bridge Across
TTITLE12=The River, The Sea
TTITLE13=What We Have Here Tonight
EXTD=
EXTT0=
EXTT1=
EXTT2=
EXTT3=
EXTT4=
EXTT5=
EXTT6=
EXTT7=
EXTT8=
EXTT9=
EXTT10=
EXTT11=
EXTT12=
EXTT13=
PLAYORDER=
